<svg xmlns="http://www.w3.org/2000/svg" viewBox="0 0 24 24" id="google-translate"><path fill="none" stroke="#303c42" stroke-linecap="round" stroke-linejoin="round" d="M.5 2v16c0 .8.7 1.5 1.5 1.5h15L10.5.5H2C1.2.5.5 1.2.5 2z"></path><path fill="none" stroke="#303c42" stroke-linecap="round" stroke-linejoin="round" d="M12 4.5h10c.8 0 1.5.7 1.5 1.5v16c0 .8-.7 1.5-1.5 1.5h-8.5l-1.5-4M17 19.5l-3.5 4M14.5 10.5h7M17.5 9.5v1"></path><path fill="none" stroke="#303c42" stroke-linecap="round" stroke-linejoin="round" d="M20 10.5c0 1.1-1.8 4.4-4 6m0-3.5c.5 1.3 4 4.5 4 4.5m-9.9-10C8.4 6 5.9 6.2 4.5 7.9s-1.2 4.2.4 5.6 4.2 1.2 5.6-.4c.6-.7 1-1.7 1-2.6h-4"></path></svg>